<?xml version="1.0" standalone="no"?>
<!DOCTYPE svg PUBLIC "-//W3C//DTD SVG 20010904//EN"
 "http://www.w3.org/TR/2001/REC-SVG-20010904/DTD/svg10.dtd">
<svg version="1.0" xmlns="http://www.w3.org/2000/svg"
 width="1280.000000pt" height="1137.000000pt" viewBox="0 0 1280.000000 1137.000000"
 preserveAspectRatio="xMidYMid meet">
<g transform="translate(0.000000,1137.000000) scale(0.100000,-0.100000)"
fill="#8bc34a" stroke="none">
<path d="M1762 11313 c-6 -32 -31 -195 -57 -363 -26 -168 -49 -306 -50 -308
-1 -1 -132 29 -291 68 -880 215 -1352 330 -1358 330 -15 0 -1 -200 74 -1065
98 -1136 248 -2859 380 -4390 55 -638 110 -1266 121 -1395 19 -215 20 -318 2
-388 -4 -17 -1 -22 16 -22 15 0 21 -6 21 -22 0 -26 121 -1422 123 -1425 1 -1
126 -33 277 -72 585 -151 1381 -356 1985 -511 347 -90 853 -220 1125 -290 272
-70 779 -200 1125 -290 347 -89 871 -224 1165 -300 294 -75 767 -197 1050
-270 666 -171 1755 -452 2077 -535 175 -45 270 -65 312 -65 l61 0 0 45 c0 44
1 45 31 43 l31 -3 45 130 c24 72 67 194 94 273 27 78 71 206 98 285 27 78 72
208 100 290 105 304 165 477 811 2352 364 1056 684 1984 711 2063 27 78 72
207 99 287 28 80 73 210 100 290 28 80 72 209 99 288 27 78 73 210 101 292 28
83 73 213 100 290 53 154 121 351 199 578 28 81 74 213 102 295 142 409 159
465 159 516 l0 51 -800 195 c-440 107 -800 197 -800 200 0 3 20 133 44 290 25
156 44 285 43 286 -1 0 -526 114 -1167 253 -641 138 -1280 276 -1420 307 -140
30 -295 64 -345 74 -49 10 -193 42 -320 69 -448 97 -4402 953 -4540 982 -342
73 -428 95 -720 185 -170 53 -314 97 -319 97 -5 1 -12 -9 -16 -23 -8 -31 13
-33 -305 36 -137 30 -275 54 -306 54 l-57 0 -10 -57z"/>
</g>
</svg>
